<?xml version="1.0" standalone="no"?>
<!DOCTYPE svg PUBLIC "-//W3C//DTD SVG 1.1//EN" "http://www.w3.org/Graphics/SVG/1.1/DTD/svg11.dtd" >
<svg xmlns="http://www.w3.org/2000/svg">
<metadata>
This is a custom SVG webfont generated by Font Squirrel.
Copyright   : Copyright c 2010 Daniel Rhatigansparkyultrasparkyorg with Reserved Font Name Copse
Designer    : Daniel Rhatigan
Foundry     : Daniel Rhatigan
</metadata>
<defs>
<font id="webfontWKqJmDgH" horiz-adv-x="1198" >
<font-face units-per-em="2048" ascent="1638" descent="-410" />
<missing-glyph horiz-adv-x="438" />
<glyph unicode=" "  horiz-adv-x="438" />
<glyph unicode="&#x09;" horiz-adv-x="438" />
<glyph unicode="&#xa0;" horiz-adv-x="438" />
<glyph unicode="!" horiz-adv-x="595" d="M164 135q0 49 37 84q43 39 96 39q57 0 98 -39q43 -39 43 -100q0 -57 -43 -99q-45 -41 -98 -40q-90 0 -125 83q-8 23 -8 72zM166 1493q0 33 133 33t133 -33l-49 -1061q0 -27 -55 -39q-10 -2 -29 -2q-86 0 -86 43z" />
<glyph unicode="&#x22;" horiz-adv-x="759" d="M68 1534q0 49 122 49q59 0 86 -16q23 -14 23 -29l-35 -397q-3 -31 -67 -31q-45 0 -60 10q-18 12 -18 21zM459 1538q2 49 145 43q88 -8 88 -47l-53 -393q-4 -31 -76 -31q-68 0 -69 31z" />
<glyph unicode="#" horiz-adv-x="1189" d="M59 526q0 20 12.5 45t28.5 25h185l47 309h-148q-29 0 -39 53q-2 8 -2 23q0 47 16.5 63.5t24.5 16.5h168l68 444q3 18 31 19q10 0 22 1t14 1q74 0 74 -21l-63 -444h286l66 444q3 18 31 19q10 0 23.5 1t15.5 1q72 0 71 -21l-63 -444h162q29 0 36 -51q2 -12 2 -29 q-10 -76 -38 -76h-185l-45 -309h150q28 0 37 -49q2 -8 2 -31q0 -14 -11 -45q-10 -29 -28 -29h-170l-64 -442q-2 -18 -33 -18q-12 0 -26.5 -1t-16.5 -1h-20q-51 0 -51 20l65 442h-286l-64 -442q-4 -18 -33 -18q-12 0 -25.5 -1t-15.5 -1h-22q-49 0 -49 20l63 442h-162 q-31 0 -39 52q-2 7 -2 32zM430 596h287l45 309h-287z" />
<glyph unicode="$" horiz-adv-x="1128" d="M66 299q0 68 45 113t108 45q66 0 109 -47q45 -49 45 -111q0 -10 -2 -16l-6 -23q-2 -8 -6.5 -20.5t-6.5 -16.5q59 -43 137 -49v508q-188 82 -253 141q-70 63 -103 125q-33 63 -33 152q0 162 109 258q106 94 280 117v133q0 29 72 28.5t72 -28.5v-127q154 -10 270 -78 q141 -80 141 -207q0 -61 -43 -109q-43 -45 -110 -45q-63 0 -108.5 45.5t-45.5 94.5q0 47 29 108q-61 35 -133 37v-477q209 -98 276 -152q76 -59 111 -118q37 -61 37 -148q0 -166 -117 -274q-119 -111 -307 -131v-168q0 -29 -72 -29t-72 29v161q-160 12 -292 86 q-131 74 -131 193zM311 1135q0 -120 178 -215v399q-178 -30 -178 -184zM633 184q150 27 196 138q16 39 17 77q0 74 -55 123q-53 47 -158 96v-434z" />
<glyph unicode="%" horiz-adv-x="1280" d="M68 0l991 1505q23 31 90.5 31t67.5 -31l-984 -1505q-20 -31 -94 -31q-71 0 -71 31zM82 1188q0 135 84 225q86 92 219 92q127 0 199 -86q70 -84 69 -221q0 -133 -84 -223q-86 -92 -217 -92t-200 86q-70 84 -70 219zM238 1204q0 -143 69 -194q25 -18 58 -19q131 0 131 191 q0 145 -72 194q-25 18 -59 19q-127 -1 -127 -191zM627 285q0 133 86 225t219 92q129 0 198 -86q70 -84 70 -219q0 -133 -86 -225t-215 -92t-201 86q-71 88 -71 219zM784 305q0 -145 70 -196q23 -16 57 -17q131 0 131 189q0 147 -71 196q-23 16 -60 17q-127 -1 -127 -189z " />
<glyph unicode="&#x26;" horiz-adv-x="1353" d="M74 377q0 126 55 221q53 92 201 240l-43 71q-90 152 -90 289t104 232q102 94 295 94q188 0 287 -111q76 -88 75 -207q0 -123 -61 -227q-63 -106 -217 -264l256 -338q117 168 117 272q0 16 -15 17h-123q-31 0 -38 55q-2 10 -3 27q0 59 25 59h399q25 0 25 -70 q0 -72 -35 -71h-61q-23 -186 -203 -404l23 -33q29 -45 75 -67q43 -20 115 -21q25 0 25 -55q0 -57 -14.5 -71.5t-24.5 -14.5h-170q-78 0 -168 102q-172 -123 -371 -122q-200 0 -319 110q-121 111 -121 287zM307 440q0 -154 62 -229q61 -78 143 -78q160 0 281 92l-369 488 q-117 -117 -117 -273zM399 1229q0 -92 50 -185q45 -84 139 -204q166 147 166 348q0 125 -95 168q-29 14 -73 14h-2q-86 0 -135.5 -43t-49.5 -98z" />
<glyph unicode="'" horiz-adv-x="378" d="M74 1534q0 49 114 49q74 0 95 -14q23 -16 22 -31l-43 -397q-3 -31 -67 -31q-76 0 -78 31z" />
<glyph unicode="(" horiz-adv-x="634" d="M92 727q0 285 96 533q94 246 250 415q8 8 43 8t56 -20q23 -23 22 -49q-256 -440 -256 -828v-120q0 -174 57 -385q57 -207 199 -447q0 -45 -47 -67q-12 -6 -31 -7q-23 0 -43 13q-238 256 -317 663q-29 148 -29 291z" />
<glyph unicode=")" horiz-adv-x="636" d="M76 -166q256 434 256 840v121q0 182 -56 379q-55 195 -200 440q0 27 22 49q20 20 55 20t44 -8q244 -266 319 -657q29 -143 29 -291q0 -430 -213 -776q-70 -111 -135 -178q-20 -12 -47 -13q-29 0 -51.5 22.5t-22.5 51.5z" />
<glyph unicode="*" horiz-adv-x="675" d="M66 1360q0 29 18 74t41 45h4l147 -68l-18 158q0 18 53 28q8 2 37 2q23 0 41 -6q31 -8 31 -24l-21 -160l146 68h10q18 0 37 -45q18 -46 18 -74q0 -29 -14 -35l-162 -33l115 -114q4 -8 4 -22.5t-45 -49.5t-62 -35q-18 0 -22 8l-90 146l-78 -144q-6 -6 -23 -6q-20 0 -65 33 q-43 31 -43 57q0 6 2 11l109 120l-156 31q-14 2 -14 35z" />
<glyph unicode="+" horiz-adv-x="1040" d="M59 655q4 39 14.5 57.5t26.5 16.5h349v369q0 20 71.5 20t71.5 -20v-369h350q33 0 39 -74q0 -47 -14.5 -63.5t-24.5 -16.5h-350v-413q0 -20 -71.5 -20.5t-71.5 20.5v413h-349q-31 0 -39 52q-2 12 -2 28z" />
<glyph unicode="," horiz-adv-x="503" d="M74 -211q106 119 106 195q-74 40 -74 129q0 61 41 100t103 39q63 0 104 -39q45 -41 45 -100q0 -176 -266 -383q-27 0 -43 16t-16 43z" />
<glyph unicode="-" horiz-adv-x="749" d="M113 608q0 27 10 51q12 29 31 29h446q29 0 37 -57q2 -10 2 -27q0 -51 -16.5 -71.5t-24.5 -20.5h-446q-28 0 -37 61q-2 10 -2 35z" />
<glyph unicode="." horiz-adv-x="485" d="M106 115q0 94 84 129q27 10 68 10q43 0 84 -41q39 -39 39 -98q0 -92 -82 -125q-27 -10 -70 -10q-41 0 -84 38q-39 38 -39 97z" />
<glyph unicode="/" horiz-adv-x="911" d="M35 -141l672 1747q53 33 75 32q90 0 90 -32l-665 -1747q-41 -29 -106.5 -29t-65.5 29z" />
<glyph unicode="0" d="M94 678q0 256 35 401q104 446 489 447q254 0 377 -211q111 -190 111 -547q0 -360 -143 -573q-143 -215 -385 -215q-244 0 -373 245q-111 205 -111 453zM328 754q0 -430 151 -564q51 -45 123 -45q133 0 201 166q70 170 69 443q0 440 -139 561q-51 45 -131 45 q-274 0 -274 -590v-16z" />
<glyph unicode="1" d="M242 1204q0 25 16 35l459 287q90 0 90 -21v-1364h246q25 0 24 -71q0 -70 -37 -70h-723q-23 0 -22.5 53t27.5 80q8 8 16 8h149q90 0 105 25q4 12 4 18v967q0 61 -21 61q-8 0 -26 -8l-47 -18q-29 -10 -56 -23q-106 -49 -132.5 -49t-49.5 31q-22 32 -22 59z" />
<glyph unicode="2" d="M143 1174q0 74 41 143q39 66 105 113q131 94 317 94q190 0 311 -88t121 -242q0 -233 -184 -412q-43 -43 -115 -100l-118 -98q-223 -180 -283 -373h553l41 137q29 23 53 23q55 0 80 -52l-45 -319h-848v76q0 274 201 497q90 94 116 119l117 111q121 111 172 225 q29 63 29 150q0 88 -66 141q-63 51 -186 51q-117 0 -178 -70q27 -14 51 -55q23 -39 23 -92q0 -51 -43 -98q-43 -45 -111 -45q-66 0 -109 43q-45 45 -45 121z" />
<glyph unicode="3" d="M145 340q0 66 45.5 111t106.5 45q63 0 108.5 -43t45.5 -111q0 -72 -72 -137q61 -72 180 -72q121 0 195 78q72 74 71 199q0 123 -73 215q-74 90 -207 106v92q174 49 237 191q27 59 27 116q0 111 -68 177q-66 63 -184 63q-117 0 -178 -70q27 -14 51 -55q23 -39 23 -92 q0 -49 -45 -98q-43 -45 -109 -45t-109 43q-45 45 -45 121q0 74 41 143q39 66 105 113q131 94 315 94q188 0 299 -103q115 -104 115 -276t-158 -289q-33 -25 -92 -53q129 -66 180 -123q109 -121 109 -281q0 -162 -135.5 -290.5t-341.5 -128.5q-164 0 -301 100 q-136 98 -136 260z" />
<glyph unicode="4" d="M96 485l459 1041q174 0 174 -133l-416 -824h383v349q0 102 211 102v-451h183q25 0 24.5 -57t-16.5 -76q-18 -20 -29 -20h-162v-275h148q25 0 24 -71q0 -70 -37 -70h-624q-23 0 -23 51q0 55 27 82q8 8 16 8h150q88 0 104 25q4 12 4 18v232h-553q-41 24 -47 69z" />
<glyph unicode="5" d="M145 340q0 66 45.5 111t108.5 45q66 0 109 -45q45 -49 45 -113q0 -66 -74 -133q61 -72 182 -72q127 0 203 80q76 78 76 223q0 143 -96.5 233.5t-254.5 90.5h-243v745h758q0 -109 -13 -143q-25 -68 -98 -68h-494v-381h154q250 0 385 -139t135 -342t-137 -326 q-139 -125 -356 -126q-162 0 -299 100q-136 98 -136 260z" />
<glyph unicode="6" d="M109 711q0 399 182 622q158 193 366 193h2q299 0 385 -205q27 -66 27 -145q0 -76 -45 -121t-108.5 -45t-106.5 45q-45 49 -45 110q0 98 74 135q-61 70 -178 70h-3q-127 0 -221 -151q-96 -156 -96 -410q109 111 334 111q74 0 166 -33q82 -29 145 -92q127 -127 127 -344 q0 -213 -149.5 -342t-335.5 -129q-520 0 -520 731zM342 578q0 -168 74 -306q74 -139 194 -139q119 0 197 90q76 88 76 226q0 133 -74 225q-72 90 -182.5 90t-182.5 -57q-75 -59 -102 -129z" />
<glyph unicode="7" d="M90 1214l39 291h973q35 0 35 -65l-150 -258q-133 -238 -199 -404q-68 -174 -94 -270q-66 -227 -86 -508q0 -20 -116.5 -20t-116.5 20q51 551 332 1014q109 176 192 297h-637l-37 -125q-6 -18 -45 -19q-84 0 -90 47z" />
<glyph unicode="8" d="M92 389q0 238 264 447q-84 70 -120 129q-72 113 -72 239q0 131 125 226q127 96 323 96q193 0 318 -96q123 -94 123 -226q0 -188 -142 -346q-25 -29 -75 -80q139 -74 188 -133q45 -53 68 -113q20 -53 20 -141t-39 -164q-41 -78 -108 -133q-143 -115 -340 -114 q-262 0 -396 112q-137 115 -137 297zM326 414q0 -123 77 -201q80 -80 203 -80q125 0 199 80q76 82 76 151.5t-29 120.5q-27 47 -94 109q-61 55 -271 168q-161 -174 -161 -348zM367 1200q0 -104 100 -192q66 -61 235 -158q145 188 146 309q0 94 -72 154q-70 57 -176 57 q-109 0 -170 -53q-63 -56 -63 -117z" />
<glyph unicode="9" d="M92 1055q0 213 152 342q150 129 336 129q518 0 518 -731q0 -621 -318 -768q-104 -47 -200 -47q-190 0 -317.5 96t-127.5 262q0 68 45 113t109 45q66 0 108 -45q45 -49 45 -111q0 -98 -73 -135q61 -72 192 -72t219 143q84 137 84 420q-98 -111 -332 -110q-74 0 -165 32 q-82 29 -148 95q-127 127 -127 342zM326 1057q0 -135 71 -226q74 -92 181 -92q111 0 186 60q72 57 100 129q0 195 -71 319q-72 123 -195 123q-119 0 -197 -90q-75 -88 -75 -223z" />
<glyph unicode=":" horiz-adv-x="557" d="M141 162q0 61 39 100t82 39h2q76 0 115 -39t39 -100q0 -57 -39 -96t-84 -39h-25q-55 0 -90 36q-39 44 -39 99zM141 772q0 53 39 96q37 39 84 39h25q53 0 90 -37q39 -39 39 -98q0 -57 -39 -96q-41 -41 -84 -41q-78 0 -115 39q-39 43 -39 98z" />
<glyph unicode=";" horiz-adv-x="571" d="M111 -211q104 117 104 195q-74 40 -74 129q0 59 43 100q41 39 102.5 39t102.5 -39q45 -41 45 -100q0 -178 -264 -383q-29 0 -45 16q-14 14 -14 43zM147 772q0 94 82 127q27 10 70 10q45 0 84 -39t39 -98q0 -57 -39 -96q-41 -41 -98 -41q-59 0 -98.5 39t-39.5 98z" />
<glyph unicode="&#x3c;" horiz-adv-x="1073" d="M55 641q0 59 54 90l790 443q61 -23 68 -107l-635 -426l635 -444q0 -76 -62 -101l-799 461q-51 33 -51 84z" />
<glyph unicode="=" horiz-adv-x="1163" d="M119 838q0 47 14 61q16 16 27 16h846q29 0 36 -51q2 -8 2 -28q0 -14 -10 -45q-10 -29 -28 -29h-846q-31 0 -39 51q-2 9 -2 25zM123 473.5q0 24.5 10 44.5q12 25 29 25h844q28 0 36 -49q2 -8 2 -31q0 -14 -10 -45q-10 -29 -28 -29h-842q-31 0 -39 51q-2 9 -2 33.5z" />
<glyph unicode="&#x3e;" horiz-adv-x="1073" d="M109 197l634 444l-634 426q0 55 36 90q10 10 29 17l793 -443q53 -31 53 -90q0 -51 -51 -84l-799 -461q-61 25 -61 101z" />
<glyph unicode="?" horiz-adv-x="946" d="M55 1266q0 90 76 149.5t170 83.5q96 25 180 25l4 2q76 0 162 -31q76 -27 129 -78q106 -98 106.5 -247.5t-116.5 -272.5q-52 -55 -117 -104l-129 -101v-248q0 -45 -61 -59q-12 -2 -39 -2q-94 0 -94 61v271q35 33 75 63l78 60q89 74 123 123q63 90 64 190q0 96 -61.5 157.5 t-155.5 61.5q-100 0 -136 -10q23 -41 23 -94q0 -51 -41 -92q-39 -39 -100 -39q-59 0 -99 39q-41 41 -41 92zM281 135q0 43 41 84q39 39 84 39h24q49 0 90 -39t41 -100q0 -57 -41 -98t-86 -41q-106 0 -141 83q-12 33 -12 72z" />
<glyph unicode="@" horiz-adv-x="1841" d="M68 467q0 390 245 639q246 250 652 250q156 0 307 -64q158 -66 262 -174q225 -227 225 -590q0 -224 -129 -381q-129 -158 -330 -157h-2q-104 0 -143 51q-10 12 -22 45q-86 -70 -211 -96q-51 -10 -97 -10q-365 0 -364 532q0 229 135 370.5t334 141.5q98 0 231 -37l41 51 q4 2 12 2h15q58 0 104 -36q12 -8 19 -23l-56 -215v-569q0 -41 13 -54q14 -14 51 -14q82 0 162 111q76 106 75 268q0 313 -180 502q-180 190 -487 190q-311 0 -504 -198.5t-193 -552.5q0 -286 185 -467q186 -182 469 -183q286 0 461 117q45 -20 75 -84q8 -18 13 -35 q-219 -147 -525 -147q-387 0 -616 213q-227 211 -227 604zM666 512q0 -195 55 -287t145 -92q117 0 236 100v572q-84 66 -189 65q-160 0 -223 -184q-24 -72 -24 -174z" />
<glyph unicode="A" horiz-adv-x="1423" d="M-12 53q0 55 24 80q8 8 35 8q78 0 98 58l508 1306q8 20 57.5 20.5t57.5 -20.5l532 -1364h117q27 0 27 -55t-14 -70q-16 -16 -25 -16h-485q-25 0 -25 53q0 57 14 72q16 16 27 16q125 0 125 25q0 10 -8 24l-119 310h-508l-139 -359h172q27 0 26 -55q0 -51 -14 -70 q-12 -16 -22 -16h-437q-24 0 -24 53zM485 653h389l-192 504z" />
<glyph unicode="B" horiz-adv-x="1327" d="M74 1446q0 59 26 59h514q543 0 543 -368q0 -114 -80 -203q-80 -90 -196 -121q174 -25 268 -123q100 -104 100 -252q0 -317 -315 -415q-104 -33 -256 -33l-252 10h-301q-25 0 -25 53t27 80q8 8 35 8h14q115 0 115 43v1164q0 16 -12 16h-164q-31 0 -39 53q-2 11 -2 29z M502 299q0 -80 39 -117q43 -39 133 -39q188 0 264 64q78 66 78 219.5t-131 235.5q-115 72 -275 71h-108v-434zM502 887h153q268 0 269 235q0 141 -111 191q-84 39 -311 39v-465z" />
<glyph unicode="C" horiz-adv-x="1273" d="M102 741q0 381 187 582q187 203 485 203h2q157 0 295 -80q139 -80 139 -205q0 -61 -43 -108q-43 -45 -110 -46q-66 0 -109 43q-45 45 -45 107q0 59 23 98q-55 35 -156 35q-190 0 -313 -151q-121 -147 -121 -396q0 -508 248 -637q80 -43 161 -43q162 0 289 84 q59 41 77.5 41t47.5 -37q29 -39 29 -63.5t-19 -40.5q-63 -55 -172 -100q-117 -47 -256 -47q-287 0 -452 182q-187 200 -187 579z" />
<glyph unicode="D" horiz-adv-x="1515" d="M74 1442q0 63 24 63h584q395 0 563 -184q168 -182 168 -565q0 -381 -229 -580q-205 -176 -502 -176h-555q-27 0 -27 51q0 49 27 82q6 10 57 10q53 0 78 9q29 10 29 32v1166q0 14 -12 14h-164q-35 0 -41 78zM502 154h145q215 0 375 147q158 145 158 422q0 471 -291 590 q-92 39 -215 39h-172v-1198z" />
<glyph unicode="E" horiz-adv-x="1286" d="M74 1442q0 63 24 63h1100v-291q0 -35 -69.5 -34.5t-69.5 22.5q0 82 -23 109q-41 41 -141 41h-393v-504h254q47 0 55 26q10 31 10 125q0 23 58 23q55 0 69 -14q16 -16 17 -23v-428q0 -41 -72 -41q-74 0 -74 27v151h-317v-540h528l78 149q9 18 37 19q96 0 96 -41 q0 -2 -1 -5l-1 -2l-90 -274h-1022q-25 0 -25 55q0 53 25 78q8 8 35 8h14q115 0 115 43v1166q0 14 -12 14h-164q-35 0 -41 78z" />
<glyph unicode="F" horiz-adv-x="1234" d="M74 1442q0 63 24 63h1100v-291q0 -35 -69.5 -34.5t-69.5 22.5q0 82 -23 109q-41 41 -141 41h-393v-504h254q47 0 55 26q10 31 10 125q0 23 58 23q55 0 69 -14q16 -16 17 -23v-428q0 -41 -72 -41q-74 0 -74 27v151h-317v-553h215q25 0 24.5 -55t-14.5 -70q-16 -16 -27 -16 h-573q-25 0 -25 55q0 53 25 78q8 8 35 8h14q115 0 115 43v1166q0 14 -12 14h-164q-35 0 -41 78z" />
<glyph unicode="G" horiz-adv-x="1361" d="M100 776q0 160 52 307q51 145 141 246q180 197 477 197h8q182 0 320 -78q135 -76 135 -207q0 -59 -45 -108q-43 -45 -108.5 -45.5t-108.5 42.5q-45 45 -45 107q0 59 16 98q-80 35 -174 35q-190 0 -313 -151q-121 -147 -121 -400q0 -676 436 -676h2q114 0 215 43v289 q0 16 -12 17h-164q-29 0 -39 55q-2 10 -2 26q0 59 27 60h483q25 0 25 -72q0 -70 -35 -69h-72v-345q-90 -78 -154 -104q-145 -63 -319 -63q-170 0 -313 94q-221 147 -289 446q-23 106 -23 256z" />
<glyph unicode="H" horiz-adv-x="1611" d="M74 1444q0 61 24 61h592q27 0 27 -71q0 -70 -35 -70h-180v-516h608v500q0 16 -10 16h-164q-29 0 -39 53q-2 10 -2 27q0 61 27 61h589q25 0 25 -71q0 -70 -35 -70h-178v-1223h168q27 0 27 -55q0 -53 -16.5 -69.5t-24.5 -16.5h-533q-23 0 -22 53q0 55 26 80q8 8 35 8h14 q113 0 113 43v510h-608v-553h168q25 0 24.5 -55t-14.5 -70q-16 -16 -27 -16h-530q-25 0 -25 53q0 51 29 80q8 8 35 8h14q115 0 115 43v1164q0 16 -15 16h-161q-35 0 -41 80z" />
<glyph unicode="I" horiz-adv-x="790" d="M74 1446q0 59 26 59h592q25 0 25 -71q0 -70 -35 -70h-180v-1223h168q27 0 26.5 -55t-14.5 -70q-16 -16 -27 -16h-532q-23 0 -23 53t27 80q8 8 35 8h14q115 0 115 43v1164q0 16 -12 16h-164q-31 0 -39 53q-2 11 -2 29z" />
<glyph unicode="J" horiz-adv-x="755" d="M-53 -305q0 96 84 131q27 10 53 10q74 0 117 -67q72 47 71 231v1348q0 16 -12 16h-164q-31 0 -39 53q-2 10 -2 29q0 59 27 59h592q25 0 24 -71q0 -70 -34 -70h-181v-1296q0 -193 -98 -338q-71 -104 -178 -148q-57 -23 -121 -22q-61 0 -100 39t-39 96z" />
<glyph unicode="K" horiz-adv-x="1486" d="M74 1446q0 59 26 59h539q27 0 27 -71q0 -70 -35 -70h-129v-1223h168q27 0 26.5 -55t-14.5 -70q-16 -16 -27 -16h-532q-23 0 -23 53t27 80q8 8 35 8h14q115 0 115 43v1164q0 16 -12 16h-164q-31 0 -39 53q-2 11 -2 29zM569 797l525 567h-131q-27 0 -27 55q0 51 14 70 q12 16 23 16h436q25 0 25 -57q0 -84 -48 -84q-63 0 -102 -43l-457 -518l441 -574q33 -45 78 -67q41 -20 114 -21q25 0 25 -55q0 -57 -14.5 -71.5t-24.5 -14.5h-170q-68 0 -139 61q-20 16 -37 41z" />
<glyph unicode="L" horiz-adv-x="1181" d="M74 1456q0 12 6 30.5t18 18.5h592q27 0 27 -71q0 -70 -35 -70h-180v-1210h469l76 149q10 18 45 19q41 0 63 -11q27 -12 27 -30v-7l-95 -274h-964q-25 0 -25 53q0 51 29 80q8 8 35 8h14q115 0 115 43v1164q0 16 -15 16h-161q-31 0 -39 53q-2 10 -2 23v16z" />
<glyph unicode="M" horiz-adv-x="1968" d="M74 1446q0 59 26 59h297q29 0 41 -28l549 -1158l481 1166q8 20 27 20h375q25 0 24 -71q0 -70 -34 -70h-181v-1223h168q27 0 27 -55t-14 -70q-16 -16 -27 -16h-530q-25 0 -25 53q0 51 29 80q8 8 32 8h14q115 0 115 43v934l-448 -1118q-12 -12 -53 -12q-40 0 -62 12 l-461 1024v-883h168q27 0 27 -55q0 -53 -16.5 -69.5t-24.5 -16.5h-473q-25 0 -25 53t27 80q8 8 35 8h14q115 0 115 43v1164q0 16 -12 16h-164q-31 0 -39 53q-2 11 -2 29z" />
<glyph unicode="N" horiz-adv-x="1665" d="M74 1446q0 59 26 59h349l792 -1161v1004q0 16 -12 16h-164q-31 0 -39 53q-2 10 -2 29q0 59 27 59h532q27 0 27 -71q0 -70 -35 -70h-180v-1366q0 -18 -72 -18t-84 18l-795 1128v-985h168q27 0 27 -55q0 -57 -14.5 -71.5t-26.5 -14.5h-473q-25 0 -25 53t27 80q8 8 35 8h14 q115 0 115 43v1164q0 16 -12 16h-164q-31 0 -39 53q-2 11 -2 29z" />
<glyph unicode="O" horiz-adv-x="1499" d="M102 739q0 379 184.5 582t487.5 203t463 -211q162 -215 162 -588q0 -375 -201 -571q-174 -174 -458.5 -174t-450.5 182q-187 198 -187 577zM332 823q0 -504 250 -637q76 -41 170 -41q187 0 295 129q121 147 120 435q0 285 -123 469q-121 182 -301 182 q-178 0 -294.5 -147.5t-116.5 -389.5z" />
<glyph unicode="P" horiz-adv-x="1220" d="M74 1446q0 59 26 59h555q231 0 369 -112q135 -111 135 -303q0 -461 -657 -461v-488h223q25 0 25 -55t-15 -70q-16 -16 -26 -16h-586q-25 0 -25 53q0 51 29 80q8 8 35 8h14q115 0 115 43v1166q0 14 -15 14h-161q-35 0 -41 82zM502 782q205 0 303 52q123 63 123 231 t-96.5 227.5t-329.5 59.5v-570z" />
<glyph unicode="Q" horiz-adv-x="1501" d="M102 739q0 377 187 582q184 203 487 203t463 -211t160 -611q0 -395 -242 -585q-72 -57 -162 -92q166 -309 394 -310q104 0 247 84q8 3 16 4q27 0 62 -43q20 -23 21 -55q0 -31 -23 -47q-133 -96 -346 -96h-6q-362 0 -621 418h-8q-276 0 -452 190q-177 192 -177 569z M334 827q0 -510 248 -641q76 -41 172 -41q184 0 293 129q123 152 122.5 434.5t-125.5 469.5q-121 182 -301 182q-178 0 -294 -148q-115 -145 -115 -385z" />
<glyph unicode="R" horiz-adv-x="1353" d="M74 1446q0 59 26 59h555q231 0 369 -112q135 -111 135 -303q0 -301 -291 -408l281 -453q29 -45 76 -67q43 -20 116 -21q25 0 25 -55t-16 -72q-14 -14 -25 -14h-170q-78 0 -139 59q-16 14 -35 43l-328 535q-86 -8 -151 -8v-488h223q25 0 25 -55t-15 -70q-16 -16 -26 -16 h-586q-25 0 -25 53q0 51 29 80q8 8 35 8h14q115 0 115 43v1166q0 14 -15 14h-161q-35 0 -41 82zM502 782q205 0 303 52q123 63 123 231t-96.5 227.5t-329.5 59.5v-570z" />
<glyph unicode="S" horiz-adv-x="1175" d="M84 260q0 68 43 111q45 45 110.5 45t108.5 -45q43 -46 43 -99q0 -55 -27 -102q70 -37 160 -37q166 0 254 67.5t88 184.5q0 119 -205 238q-39 23 -124 65l-144 74q-272 143 -272 385q0 188 141 283q143 96 348 96h10q150 0 285 -70q160 -82 160 -215q0 -59 -45 -108 q-43 -45 -109 -46q-68 0 -110.5 43.5t-42.5 110.5q0 53 28 94q-63 35 -143 35q-150 0 -231 -57q-80 -55 -80 -164q0 -77 86 -141q53 -37 104 -64l135 -70q219 -111 310 -202q111 -115 110 -289q0 -170 -143 -287q-145 -117 -365 -116q-168 0 -315 71q-168 82 -168 209z" />
<glyph unicode="T" horiz-adv-x="1273" d="M18 1229v4l37 272h1162l38 -272v-4q0 -37 -55 -49q-10 -2 -31 -2q-40 0 -49 24l-43 150h-336v-1211h168q29 0 29 -55q0 -53 -16.5 -69.5t-24.5 -16.5h-532q-23 0 -23 53q0 55 27 80q8 8 55 8h12q95 0 94 43v1168h-333l-45 -150q-8 -25 -54 -24q-47 0 -71 30q-9 9 -9 21z " />
<glyph unicode="U" horiz-adv-x="1544" d="M41 1444q0 61 27 61h571q25 0 25 -71q0 -70 -35 -70h-160v-786q0 -338 195 -410q63 -23 141 -23q168 0 244 103q78 106 77 327v773q0 16 -14 16h-143q-31 0 -39 53q-2 10 -2 29q0 59 26 59h516q25 0 25 -55q0 -57 -12.5 -71.5t-22.5 -14.5h-170v-809q0 -575 -518 -575 q-281 0 -397.5 145t-116.5 444v779q0 16 -12 16h-164q-35 0 -41 80z" />
<glyph unicode="V" horiz-adv-x="1425" d="M-18 1417q0 57 14 72q16 16 24 16h486q25 0 24 -55q0 -53 -16 -69.5t-25 -16.5q-125 0 -124 -25q0 -10 8 -24l370 -967l375 1016h-151q-27 0 -27 55q0 51 14 70q12 16 23 16h434q27 0 27 -55q0 -53 -25 -78q-8 -8 -37 -8q-76 0 -96 -57l-504 -1307q-8 -20 -57 -20 q-53 0 -62 20l-540 1364h-111q-24 0 -24 53z" />
<glyph unicode="W" horiz-adv-x="2058" d="M-37 1417q0 57 14 72q16 16 25 16h485q25 0 25 -55q0 -53 -16.5 -69.5t-24.5 -16.5q-125 0 -125 -25q0 -10 8 -24l361 -938l229 690l-117 297h-116q-27 0 -27 53q0 57 14 72q16 16 27 16h483q27 0 27 -55q0 -53 -16.5 -69.5t-24.5 -16.5q-125 0 -125 -25q0 -10 8 -24 l359 -938l297 987h-156q-27 0 -27 55q0 51 15 70q12 16 22 16h436q25 0 25 -55q0 -53 -25 -78q-8 -8 -34 -8q-78 0 -99 -57l-409 -1307q-6 -20 -60 -20q-51 0 -59 20l-332 848l-276 -848q-6 -20 -56 -20q-51 0 -59 20l-541 1364h-108q-27 0 -27 53z" />
<glyph unicode="X" horiz-adv-x="1382" d="M16 53q0 53 27 80q8 8 43 8q78 0 119 56l350 569l-377 598h-121q-27 0 -26 53q0 57 14 72q16 16 25 16h510q23 0 22.5 -55t-14.5 -70q-16 -16 -27 -16q-111 0 -110 -23q0 -8 8 -24l258 -412l317 459h-166q-25 0 -24.5 55.5t12.5 69.5q12 16 23 16h442q23 0 22.5 -55 t-14.5 -70q-16 -16 -24 -16q-74 0 -111 -43l-387 -559l348 -557q41 -64 166 -64h22q27 0 27 -55t-14 -70q-16 -16 -27 -16h-528q-27 0 -27 53q0 55 29 80l12 8h129l-299 477l-274 -448q-6 -10 -6 -16q0 -12 18 -13h104q25 0 25 -55t-14 -70q-16 -16 -27 -16h-428 q-27 0 -27 53z" />
<glyph unicode="Y" horiz-adv-x="1282" d="M-31 1417q0 57 15 72q16 16 24 16h494q25 0 24.5 -55t-14.5 -70q-16 -16 -27 -16q-106 0 -106 -35q0 -10 6 -22l285 -572l315 629h-156q-25 0 -24.5 55.5t12.5 69.5q12 16 23 16h436q25 0 24.5 -55t-22.5 -78q-8 -8 -39 -8q-68 0 -88 -43l-395 -762v-418h243q27 0 27 -55 t-14 -70q-16 -16 -27 -16h-717q-25 0 -24 53q0 55 26 80q8 8 17 8h147q90 0 107 25q4 12 4 18v375l-439 805h-110q-27 0 -27 53z" />
<glyph unicode="Z" horiz-adv-x="1280" d="M80 0v76l821 1276h-643l-45 -150q-8 -25 -53 -24q-47 0 -72 30q-8 8 -8 21v4l39 272h1083l-4 -67l-823 -1284h624l78 149q8 18 45 19q39 0 62 -11q29 -12 28 -30q0 -2 -1 -5l-1 -2l-92 -274h-1038z" />
<glyph unicode="[" horiz-adv-x="653" d="M184 -160v1831h430q33 0 33 -72q0 -70 -33 -69h-233v-1548h233q29 0 29 -72q0 -70 -29 -70h-430z" />
<glyph unicode="\" horiz-adv-x="911" d="M41 1606q0 33 76 32q37 0 90 -32l672 -1747q0 -29 -65.5 -29t-106.5 29z" />
<glyph unicode="]" horiz-adv-x="653" d="M6 1599q0 72 35 72h428v-1831h-428q-31 0 -31 70q0 72 31 72h233v1548h-233q-35 -1 -35 69z" />
<glyph unicode="^" horiz-adv-x="1179" d="M59 920l453 489q31 35 72 35t75 -35l459 -491q0 -41 -20 -62q-23 -23 -56 -22l-462 405l-445 -405q-76 0 -76 86z" />
<glyph unicode="_" horiz-adv-x="1177" d="M0 -164h1178v-123h-1178v123z" />
<glyph unicode="`" horiz-adv-x="1064" d="M211 1423q0 111 90 148q20 10 41 10h18l273 -285q0 -43 -29 -75.5t-69 -32.5z" />
<glyph unicode="a" horiz-adv-x="1044" d="M70 260q0 160 104 238q111 82 254 82h248q0 168 -27 215q-28 49 -67 67q-41 18 -103 19h-100q10 -20 10 -74q0 -47 -39 -86t-96 -39q-94 0 -127 82q-10 27 -10 59q0 74 76 125q111 74 339 74q182 0 271 -113q68 -89 67 -252v-516h168q29 0 29 -59q0 -25 -10 -51 q-8 -25 -33 -31q-59 -16 -159.5 -16t-116.5 4q-8 2 -27 16q-14 10 -33 66q-125 -90 -285 -90q-164 0 -249 79q-84 78 -84 201zM270 291q0 -117 99 -148q31 -10 61 -10q127 0 246 100v195h-205q-96 0 -131 -27q-70 -51 -70 -110z" />
<glyph unicode="b" horiz-adv-x="1097" d="M-70 1491q0 45 27 55q86 35 340 37q43 0 45 -86v-559q139 84 246 84h6q195 0 309.5 -139.5t114.5 -380.5q0 -240 -135 -377q-135 -139 -340 -139q-82 0 -181 59q-33 20 -40 25l-70 -86q-10 -6 -33 -7q-20 0 -69 23q-43 20 -48 43l45 182v1184h-176q-41 0 -41 82zM342 207 q96 -68 188 -68q190 0 256 183q25 72 25 182q0 187 -86 276q-66 66 -156 66q-94 0 -174 -47q-29 -16 -53 -45v-547z" />
<glyph unicode="c" horiz-adv-x="1003" d="M82 508q0 242 141.5 377t358.5 135q219 0 305 -98q33 -35 33 -95q0 -57 -39 -96q-41 -41 -98.5 -41t-96.5 39q-41 41 -41 78q0 33 10 74h-94q-104 0 -178 -80q-96 -102 -96 -291q0 -279 155 -352q49 -25 117 -25q96 0 232 80l69 43q2 2 19 2q18 0 43 -37q29 -41 28 -63 q0 -27 -12 -35q-188 -143 -408 -143q-213 0 -331 143q-117 141 -117 385z" />
<glyph unicode="d" horiz-adv-x="1146" d="M84 510q0 248 141 379q143 133 359 133q106 0 176 -21v408h-176q-41 0 -41 80q0 49 26 57q92 35 340 37q41 0 45 -86v-1356h168q27 0 27 -53q0 -49 -16 -70q-14 -18 -23 -18q-14 0 -29 -2q-102 -14 -182 -14q-68 0 -90 16q-20 16 -39 70q-125 -90 -301 -90 q-178 0 -283 143q-102 141 -102 387zM289 512q0 -188 73 -293q61 -86 148 -86q131 0 250 100v570q-82 63 -189 63q-188 0 -258 -180q-24 -68 -24 -174z" />
<glyph unicode="e" horiz-adv-x="1040" d="M82 512q0 242 143 375q145 135 346 135h2q184 0 287 -117q102 -119 103 -336q0 -46 -43 -80q-45 -35 -107 -34h-526q18 -236 162 -299q49 -23 98 -23q45 0 106 17q51 14 131 63q76 47 88.5 47t24.5 -12q20 -20 33 -39q18 -29 18 -53.5t-10 -32.5q-186 -143 -403 -143 q-221 0 -338 145q-115 141 -115 387zM287 604h471q0 262 -197 262q-96 0 -182 -67.5t-92 -194.5z" />
<glyph unicode="f" horiz-adv-x="790" d="M63 848q0 154 39 153h15q117 0 133 23q6 8 6 20v123q0 291 178 381q66 35 162 35t147 -33q70 -43 70 -133q0 -59 -39 -98t-96 -39q-94 0 -127 82q-10 27 -10 55v33h-2q-80 0 -86 -170q-2 -33 -2 -96v-183h268q25 0 24 -59q0 -61 -22 -86q-8 -8 -23 -8h-247v-707h225 q27 0 26.5 -55t-14.5 -70q-16 -16 -26 -16h-570q-27 0 -26 55q0 53 16 69.5t22 16.5h13q117 0 133 23q6 8 6 20v664h-193z" />
<glyph unicode="g" horiz-adv-x="1128" d="M63 -159.5q0 106.5 107 210.5l66 66l-25 28q-41 47 -41 111q0 61 84 152q-145 96 -145 266q0 172 127 256q129 86 292 86q61 0 117 -15h367q117 0 116 -100q0 -45 -30 -72q-29 -27 -68 -26.5t-53 10.5t-35 27q-51 41 -117 53q76 -84 76 -180q0 -172 -129 -269 q-131 -96 -303 -96q-39 0 -76 6q-35 -45 -35 -75q0 -35 35 -60q33 -25 115 -24h180q199 0 283 -84q66 -63 65.5 -196.5t-139.5 -244t-381 -110.5t-360 98q-93 76 -93 182.5zM258 -137q0 -150 242 -150q133 0 237.5 61.5t104.5 145.5q0 86 -109 115q-41 10 -92 10h-272 l-33 -37q-78 -84 -78 -145zM319 688q0 -90 48 -137q49 -49 110 -49q109 0 162 61q51 59 51 142q0 78 -49 131q-49 51 -109 51q-104 0 -159 -56q-54 -53 -54 -143z" />
<glyph unicode="h" horiz-adv-x="1247" d="M-6 1489q0 49 26 57q90 35 340 37q41 0 43 -86q0 -8 1.5 -24.5t1.5 -26.5v-535q131 76 258 103q33 8 61 8q195 0 266 -102q55 -76 56 -277v-502h155q27 0 27 -55q0 -53 -16.5 -69.5t-24.5 -16.5h-455q-27 0 -26.5 55.5t14.5 69.5q16 16 27 16q104 0 104 43v297 q0 190 -23 248q-20 53 -57 80q-34 25 -92 25q-131 0 -274 -113v-580h167q25 0 25 -55t-14 -70q-16 -16 -27 -16h-510q-25 0 -24.5 55.5t14.5 69.5q16 16 22 16h15q115 0 131 23q6 8 6 20v1225h-176q-35 0 -41 80z" />
<glyph unicode="i" horiz-adv-x="661" d="M35 928q0 47 26 55q94 37 340 39q41 0 45 -86v-795h168q25 0 25 -55t-14 -70q-16 -16 -27 -16h-510q-25 0 -25 55.5t15 69.5q16 16 22 16h15q115 0 131 23q6 8 6 20v664h-176q-41 0 -41 80zM190 1409q0 96 82 129q27 10 56 10q57 0 96 -39q41 -41 41 -100t-39 -98 t-98 -39q-94 0 -127 82q-11 26 -11 55z" />
<glyph unicode="j" horiz-adv-x="567" d="M-92 -303q0 94 84 129q27 10 53 10q74 0 98 -67q90 0 90 231v848h-176q-35 0 -41 78q0 41 27 55q106 41 342 41q40 0 43 -86v-51v-817q0 -195 -90 -338q-104 -170 -293 -170q-94 0 -127 82q-10 26 -10 55zM172 1409q0 94 84 129q27 10 53 10q59 0 98 -39t39 -100 q0 -59 -38.5 -98t-98.5 -39q-94 0 -127 82q-10 26 -10 55z" />
<glyph unicode="k" horiz-adv-x="1208" d="M-6 1489q0 49 26 57q90 35 340 37q41 0 43 -86q0 -8 1.5 -24.5t1.5 -26.5v-1305h104q27 0 27 -55t-15 -70q-16 -16 -26 -16h-449q-25 0 -24.5 55.5t14.5 69.5q16 16 22 16h15q115 0 131 23q6 8 6 20v1225h-176q-35 0 -41 80zM418 600l401 401h213q27 0 37 -53 q2 -10 2 -26q0 -61 -24 -62q-102 0 -134 -14q-37 -16 -51 -31l-219 -221l350 -385q61 -68 160 -68q29 0 29 -55q0 -53 -16.5 -69.5t-24.5 -16.5h-262z" />
<glyph unicode="l" horiz-adv-x="620" d="M-6 1489q0 49 26 57q90 35 340 37q41 0 43 -86q0 -8 1.5 -24.5t1.5 -26.5v-1305h167q25 0 25 -55t-14 -70q-16 -16 -27 -16h-510q-25 0 -24.5 55.5t14.5 69.5q16 16 22 16h15q115 0 131 23q6 8 6 20v1225h-176q-35 0 -41 80z" />
<glyph unicode="m" horiz-adv-x="1929" d="M35 924q0 47 24 57q63 25 150 33q84 8 119 8h24q43 0 58 -14q16 -16 16 -93v-18q154 84 274 115q45 10 68 10q184 0 264 -141q242 141 410 141q66 0 125 -27q57 -27 96 -77q66 -90 66 -279v-498h153q29 0 29 -71q0 -70 -37 -70h-461q-25 0 -24.5 55.5t22.5 77.5q8 8 19 8 q104 0 104 43v297q0 190 -23 254q-20 59 -57 86t-92 27q-113 0 -275 -129v-578h154q29 0 29 -71q0 -70 -41 -70h-457q-25 0 -24 55q0 53 24 78q8 8 16 8q104 0 105 43v297q0 190 -23 254q-20 59 -57 86t-92 27q-111 0 -275 -129v-578h168q25 0 25 -55t-14 -70 q-16 -16 -27 -16h-508q-27 0 -27 55.5t15 69.5q16 16 22 16h15q115 0 131 23q6 8 6 20v664h-176q-31 0 -39 49q-2 11 -2 27z" />
<glyph unicode="n" horiz-adv-x="1288" d="M35 926q0 46 24 55q63 25 150 33q84 8 119 8h24q43 0 58 -14q16 -16 16 -93v-18q154 84 274 115q45 10 101 10q66 0 125 -26.5t98 -77.5q63 -88 63 -279v-498h154q29 0 29 -55q0 -53 -16.5 -69.5t-24.5 -16.5h-457q-25 0 -24.5 55.5t14.5 69.5q16 16 26 16q104 0 105 43 v297q0 190 -23 254q-20 59 -57 86t-92 27q-111 0 -275 -129v-578h168q25 0 25 -55t-14 -70q-16 -16 -27 -16h-510q-25 0 -25 55.5t15 69.5q16 16 22 16h15q115 0 131 23q6 8 6 20v664h-176q-41 0 -41 78z" />
<glyph unicode="o" horiz-adv-x="1091" d="M80 518q0 238 145.5 371t354.5 133h4q193 0 311 -148q117 -145 117 -382q0 -240 -135 -375q-137 -137 -352.5 -137t-330 149t-114.5 389zM285 516q0 -188 71 -285q74 -98 195 -98q125 0 190.5 106.5t65.5 266.5q0 270 -160 340q-47 20 -96 20q-182 0 -242 -178 q-24 -71 -24 -172z" />
<glyph unicode="p" horiz-adv-x="1175" d="M6 926q0 45 25 55q41 14 137 27q106 14 147 14q57 0 66 -6q18 -8 18 -55v-37q172 98 279 98h35q63 0 137 -37q76 -37 129 -100q117 -141 117 -383t-133.5 -379t-341.5 -137q-82 0 -170 45q-8 2 -18.5 8t-12.5 6v-342h221q29 0 29 -55q0 -53 -16.5 -69.5t-24.5 -16.5h-566 q-27 0 -26.5 55t14.5 70q16 16 27 16q123 0 141 23q6 8 6 20v1102h-178q-35 0 -41 78zM420 195q68 -55 188 -56q190 0 256 183q27 76 27 180q0 190 -88 278q-66 68 -162 68h-2q-84 0 -166 -53q-25 -18 -53 -50v-550z" />
<glyph unicode="q" horiz-adv-x="1114" d="M84 514q0 244 141 375q143 133 357 133q98 0 237 -39l64 84q2 1 4 1l8 -1h14q61 0 105 -35q12 -8 18 -22l-78 -246v-1063h164q27 0 27 -53q0 -55 -17 -72q-14 -14 -24 -14h-580q-27 0 -26 53q0 57 14 71.5t27 14.5h84q115 0 131 25q6 8 6 18v319q-102 -84 -305 -83 q-68 0 -146 38q-225 113 -225 496zM289 512q0 -188 73 -283q74 -96 175 -96q104 0 223 100v570q-82 63 -189 63q-188 0 -258 -180q-24 -68 -24 -174z" />
<glyph unicode="r" horiz-adv-x="899" d="M37 907q0 65 24 74q51 20 146 31q82 8 117 8h49q39 0 45 -14.5t6 -59.5l-2 -39v-24v-23q176 160 311 160l25 2q18 0 51 -16q27 -14 57 -48q27 -29 27 -90q0 -59 -43 -96q-45 -39 -94 -39q-53 0 -90 41q-37 40 -37 86q-57 -27 -88 -61q-23 -25 -52 -66l-43 -67v-525h242 q25 0 25 -55t-15 -70q-16 -16 -26 -16h-584q-27 0 -27 55q0 51 27 78q12 8 55 8q109 0 109 43v660h-176q-39 0 -39 63z" />
<glyph unicode="s" horiz-adv-x="925" d="M76 180q0 63 39 102.5t98 39.5t98 -39q41 -41 41 -86q0 -49 -6 -64h115q137 0 186 86q14 23 15 57q0 55 -53.5 90t-162.5 68q-117 35 -167 58q-49 20 -99 59q-86 71 -86 197q0 184 207 249q77 25 154 25q158 0 258 -45q119 -55 118 -160q0 -57 -38.5 -96t-98.5 -39 q-96 0 -129 82q-10 27 -10 41t12 76h-98q-80 0 -121 -29q-70 -49 -69 -109q0 -76 139 -125l76 -26q197 -66 247 -109q104 -86 105 -219q0 -131 -103 -209q-100 -76 -256 -75q-150 0 -256 38q-155 60 -155 162z" />
<glyph unicode="t" horiz-adv-x="729" d="M27 848q0 154 36 153h17q158 0 160 43l43 222q12 55 129 55v-320h270q25 0 25 -59q0 -58 -25 -86q-8 -8 -20 -8h-250v-592q0 -111 65 -111q80 0 107 11q31 12 51 12q16 0 35 -27q16 -25 16 -55q0 -29 -18 -39q-129 -68 -246 -67q-205 0 -205 276v592h-190z" />
<glyph unicode="u" horiz-adv-x="1232" d="M20 909q0 63 21 70q169 43 307 43q41 0 45 -82v-528q0 -197 101 -234q31 -12 73 -12q123 0 213 65l43 33v584h-137q-41 0 -41 59q0 61 27 72q37 16 174 35q58 8 93 8q44 0 56 -12q23 -18 23 -115v-754h168q27 0 26.5 -67.5t-41.5 -73.5q-109 -16 -182 -16q-78 0 -92 8 q-33 20 -63 104q-160 -117 -287 -116q-252 0 -324 202q-25 68 -24 156v510h-142q-37 0 -37 61z" />
<glyph unicode="v" horiz-adv-x="1095" d="M4 915.5q0 55.5 14 69.5q16 16 25 16h434q25 0 25 -55t-15 -69q-16 -16 -26 -17q-88 0 -88 -43l198 -549l242 592h-131q-27 0 -27 55q0 51 15 70q12 16 22 16h375q25 0 25 -57q0 -84 -48 -84q-39 0 -55 -10q-18 -10 -26 -33l-334 -817q-6 -18 -39 -18q-10 0 -32.5 -1 t-35.5 -1q-37 0 -45 20l-336 860h-110q-27 0 -27 55.5z" />
<glyph unicode="w" horiz-adv-x="1562" d="M8 915.5q0 55.5 15 69.5q16 16 24 16h434q25 0 25 -55t-14 -69q-16 -16 -27 -17q-88 0 -88 -43l135 -602l250 690q10 20 49 21q45 0 53 -19l254 -704l160 657h-131q-27 0 -27 53q0 57 13 72q12 16 22 16h377q23 0 22 -71q0 -70 -38 -70q-76 0 -89 -43l-243 -817 q-6 -20 -74 -20t-74 20l-235 588l-240 -588q-8 -20 -78 -20h-20q-57 0 -60 20l-241 860h-129q-25 0 -25 55.5z" />
<glyph unicode="x" horiz-adv-x="1173" d="M35 53q0 53 26 80q8 8 37 8q35 0 68 17q35 18 53 39l246 323l-272 340h-123q-27 0 -27 53q0 57 14 72q16 16 25 16h436q25 0 25 -55t-17 -72q-14 -14 -26 -14q-63 0 -64 -18q0 -6 6 -17l191 -237l203 272h-123q-27 0 -27 55q0 51 14 70q12 16 23 16h383q25 0 24 -55 q0 -53 -16 -69.5t-24 -16.5q-74 0 -109 -43l-266 -332l229 -288q47 -56 147 -56h21q27 0 27 -55t-15 -70q-16 -16 -26 -16h-424q-29 0 -29 53q0 55 29 80q12 8 14 8h82l-219 275l-176 -246q-8 -12 -8 -16q0 -12 18 -13h57q27 0 27 -55q0 -53 -16.5 -69.5t-26.5 -16.5h-365 q-26 0 -26 53z" />
<glyph unicode="y" horiz-adv-x="1097" d="M6 915.5q0 55.5 14 69.5q16 16 25 16h434q25 0 25 -55t-15 -69q-16 -16 -26 -17q-88 0 -88 -43l203 -594l237 637h-131q-27 0 -27 55q0 51 15 70q12 16 22 16h375q25 0 25 -57q0 -84 -47 -84q-39 0 -56 -10q-18 -10 -26 -33l-422 -1077q-29 -78 -105 -131 q-70 -49 -176 -49q-141 0 -196 92q-18 29 -19 90q0 53 39 92t84 39h2q143 0 145 -160q31 0 56 37q16 25 41 78q20 43 30 76l11.5 34.5t9.5 30.5q4 10 7 22.5t3 14.5l-332 854h-110q-27 0 -27 55.5z" />
<glyph unicode="z" horiz-adv-x="1005" d="M76 735l1 3q1 3 2 9.5t1 12.5l43 241h801v-110l-570 -741h414l47 108q10 23 43 23t57.5 -12.5t24.5 -30.5q0 -2 -1 -5l-1 -2l-72 -231h-778v111l569 741h-393l-28 -111q-12 -43 -86 -43t-74 37z" />
<glyph unicode="{" horiz-adv-x="665" d="M61 680q0 63 29 70q72 10 94.5 38.5t22.5 102.5v461q0 252 149 303q43 16 117 16h164q29 0 29 -69q0 -72 -29 -72h-80q-98 0 -127 -43q-29 -45 -29 -141v-443q0 -125 -98 -186q-37 -25 -82 -35q180 -51 180 -225v-310q0 -92 19 -116q35 -49 137 -49h80q29 0 29 -72 q0 -70 -29 -70h-164q-138 0 -203 68q-63 66 -63 242v321q0 74 -23 102q-20 27 -94 37q-29 4 -29 70z" />
<glyph unicode="|" horiz-adv-x="514" d="M180 -455v2063q0 29 78 28.5t78 -28.5v-2063q0 -29 -78 -29t-78 29z" />
<glyph unicode="}" horiz-adv-x="665" d="M2 -90q0 72 29 72h82q96 0 125 36q29 39 28 140v299q0 174 180 225q-180 45 -180 221v443q0 102 -20 131q-35 53 -137 53h-78q-29 0 -29 72q0 70 29 69h168q133 0 196 -72q66 -76 66 -247v-469q0 -66 22 -95q23 -31 92 -38q29 -6 29 -58q0 -49 -10 -65q-8 -14 -51 -20.5 t-62 -31.5q-20 -27 -20 -98v-327q0 -250 -150 -295q-45 -14 -116 -15h-164q-29 0 -29 70z" />
<glyph unicode="~" horiz-adv-x="1216" d="M109 557q63 117 180 174q49 25 92 25q51 0 82 -11q53 -16 164 -63l84 -35q96 -37 131 -37q37 0 59.5 14.5t44.5 37.5q14 14 39 43q29 33 31 34q35 0 67 -28q31 -27 31 -64q-57 -123 -168 -180q-49 -25 -96 -25q-100 0 -262 66l-84 33q-92 33 -113 32q-6 0 -17.5 1 t-17.5 1q-23 0 -45 -14q-33 -20 -47 -32.5t-35 -36.5q-14 -18 -26 -27q-37 0 -65.5 28.5t-28.5 63.5z" />
<glyph unicode="&#xa2;" horiz-adv-x="1001" d="M66 696.5q0 223.5 110.5 352.5t290.5 159v195q29 29 70 29q43 0 71 -29v-189q199 -12 269 -106q25 -37 24 -90q0 -57 -39 -94t-96 -37q-58 0 -98 37q-39 37 -39 96q0 14 10 55h-94q-104 0 -178 -80q-96 -102 -97 -290q0 -279 156 -353q49 -25 96 -24h29q31 0 86 16 q59 18 135 64l72 43q4 4 18.5 4t40.5 -39q29 -41 29 -66q0 -23 -19 -39q-41 -33 -125 -75q-78 -41 -180 -54v-182q-25 -27 -69.5 -27t-71.5 27v176q-193 16 -297 156q-104 141 -104 364.5z" />
<glyph unicode="&#xa3;" horiz-adv-x="1163" d="M61 133q0 68 45.5 113t102.5 45q59 0 92 -21l45 -26q41 106 41 362h-231q-37 0 -39 76q0 29 10 51q12 27 29 27h231v434q0 166 119 256q100 76 237 76h5q162 0 237 -47q23 -16 23 -60q0 -66 -41 -110q-12 -12 -24.5 -12.5t-63.5 24.5q-52 25 -142 25h-2q-66 0 -100 -52 q-37 -53 -37 -184v-350h264q33 0 39 -76q0 -47 -14 -61q-16 -16 -25 -17h-264q-4 -53 -6 -84q-4 -47 -19 -133q-16 -96 -73 -199q156 -57 241 -57q88 0 123 21q57 35 103 129q12 23 47 22.5t61 -16.5q29 -16 31 -41q-84 -268 -281 -268q-178 0 -430 71l-33 -16 q-92 -55 -151 -55t-104.5 45t-45.5 108z" />
<glyph unicode="&#xa5;" horiz-adv-x="1273" d="M59 1419.5q0 55.5 15 69.5q16 16 24 16h469q27 0 27 -55q0 -53 -16.5 -69.5t-24.5 -16.5q-106 0 -107 -35q0 -4 7 -22l227 -525l238 582h-87q-25 0 -24.5 55.5t12.5 69.5q12 16 23 16h350q25 0 25 -55t-23 -78q-8 -8 -39 -8q-70 0 -88 -43l-156 -383h148q34 0 37 -74 q0 -27 -9 -51q-10 -29 -28 -29h-209l-90 -219h299q34 0 37 -73q0 -27 -9 -52q-10 -29 -28 -28h-301v-271h188q27 0 27 -55q0 -53 -16.5 -69.5t-24.5 -16.5h-574q-25 0 -24.5 53t26.5 80q8 8 17 8h59q92 0 107 25q4 12 4 18v228h-332q-27 0 -37 53q-2 8 -2 31q0 18 10 45 q10 25 29 24h328l-94 219h-236q-37 0 -43 76q0 47 16 64q14 14 27 14h168l-184 426h-111q-27 0 -27 55.5z" />
<glyph unicode="&#xa9;" horiz-adv-x="1685" d="M68 745v11q0 213 102 385q104 176 282.5 280.5t391.5 104.5q211 0 389 -105q180 -106 283 -280q104 -178 104 -389q0 -212 -104 -387q-104 -176 -282.5 -280.5t-389.5 -104.5q-319 0 -549 225q-145 141 -201 342q-26 92 -26 198zM199 751.5q0 -137.5 49 -255.5 q47 -113 137 -207q82 -84 205 -139q115 -51 254 -52q270 0 456 191q188 193 189 463q0 272 -189 465q-186 190 -456 190q-139 0 -254 -51q-121 -53 -205 -142q-90 -94 -137 -206q-49 -119 -49 -256.5zM365 752q0 244 141 379t358 135q219 0 305 -99q33 -35 33 -94 q0 -57 -39 -96t-96 -39q-61 0 -98 37q-39 39 -39 98v14q0 10 2 17q-33 8 -84 8q-109 0 -182 -74q-96 -96 -97 -284q0 -281 156 -355q45 -23 98 -22h27q31 0 86 16q59 18 135 64l74 43q53 -14 76 -74q6 -18 6 -33q0 -10 -4 -26q-176 -143 -402 -144q-223 0 -339.5 141.5 t-116.5 387.5z" />
<glyph unicode="&#xad;" horiz-adv-x="749" d="M113 608q0 27 10 51q12 29 31 29h446q29 0 37 -57q2 -10 2 -27q0 -51 -16.5 -71.5t-24.5 -20.5h-446q-28 0 -37 61q-2 10 -2 35z" />
<glyph unicode="&#xae;" horiz-adv-x="1087" d="M68 981q0 197 139 336t338 139q197 0 336 -139t139 -336t-139.5 -336t-335.5 -139q-199 0 -338 139t-139 336zM176 981q0 -154 109 -266q109 -111 250 -111q145 0 245 88h-43q-41 0 -65 39l-127 201q-16 -2 -53 -2v-174h83q10 -4 10.5 -31t-16.5 -33h-219q-8 8 -8 25 q0 18 4 26q6 12 10 13q23 0 31 4q6 3 6 12v418q0 4 -6 4h-41q-14 2 -14 31q0 27 10 32h227q88 0 138 -40q53 -43 53 -113q0 -117 -115 -158l109 -168q18 -27 77 -33q80 104 80 248q0 141 -108.5 254t-257.5 113q-152 0 -260.5 -112.5t-108.5 -266.5zM492 1001q90 0 110 11 q49 20 49 90q0 90 -159 90v-191z" />
<glyph unicode="&#xb4;" horiz-adv-x="1064" d="M440 1296l273 285h4q59 0 102 -43t43 -115l-323 -235q-41 0 -70 32.5t-29 75.5z" />
<glyph unicode="&#x2000;" horiz-adv-x="841" />
<glyph unicode="&#x2001;" horiz-adv-x="1683" />
<glyph unicode="&#x2002;" horiz-adv-x="841" />
<glyph unicode="&#x2003;" horiz-adv-x="1683" />
<glyph unicode="&#x2004;" horiz-adv-x="559" />
<glyph unicode="&#x2005;" horiz-adv-x="419" />
<glyph unicode="&#x2006;" horiz-adv-x="278" />
<glyph unicode="&#x2007;" horiz-adv-x="278" />
<glyph unicode="&#x2008;" horiz-adv-x="208" />
<glyph unicode="&#x2009;" horiz-adv-x="335" />
<glyph unicode="&#x200a;" horiz-adv-x="92" />
<glyph unicode="&#x2010;" horiz-adv-x="749" d="M113 608q0 27 10 51q12 29 31 29h446q29 0 37 -57q2 -10 2 -27q0 -51 -16.5 -71.5t-24.5 -20.5h-446q-28 0 -37 61q-2 10 -2 35z" />
<glyph unicode="&#x2011;" horiz-adv-x="749" d="M113 608q0 27 10 51q12 29 31 29h446q29 0 37 -57q2 -10 2 -27q0 -51 -16.5 -71.5t-24.5 -20.5h-446q-28 0 -37 61q-2 10 -2 35z" />
<glyph unicode="&#x2012;" horiz-adv-x="749" d="M113 608q0 27 10 51q12 29 31 29h446q29 0 37 -57q2 -10 2 -27q0 -51 -16.5 -71.5t-24.5 -20.5h-446q-28 0 -37 61q-2 10 -2 35z" />
<glyph unicode="&#x2013;" horiz-adv-x="1101" d="M113 614q10 74 41 74h796q28 0 37 -49q2 -8 2 -25q0 -45 -14 -61q-15 -18 -25 -18h-796q-27 0 -37 53q-4 24 -4 26z" />
<glyph unicode="&#x2014;" horiz-adv-x="1978" d="M113 614q10 74 41 74h1673q29 0 37 -49q2 -8 2 -25q0 -49 -15 -63q-16 -16 -24 -16h-1673q-29 0 -37 51q-4 24 -4 28z" />
<glyph unicode="&#x2018;" horiz-adv-x="442" d="M66 1200q0 176 266 383q27 0 43 -16.5t16 -42.5q-106 -119 -106 -195q74 -40 73 -129q0 -61 -41 -100t-86 -39h-2q-72 0 -118 41q-45 39 -45 98z" />
<glyph unicode="&#x2019;" horiz-adv-x="446" d="M80 1120q106 119 106 195q-74 40 -73 129q0 61 41 100t86 39h2q70 0 117 -41t47 -98q0 -176 -267 -383q-27 0 -43 16t-16 43z" />
<glyph unicode="&#x201c;" horiz-adv-x="841" d="M66 1200q0 176 266 383q27 0 43 -16.5t16 -42.5q-106 -119 -106 -195q74 -40 73 -129q0 -61 -41 -100t-86 -39h-2q-72 0 -118 41q-45 39 -45 98zM465 1200q0 176 264 383q29 0 45.5 -16.5t16.5 -42.5q-106 -119 -107 -195q74 -40 74 -129q0 -61 -41 -100t-86 -39h-2 q-70 0 -117 41t-47 98z" />
<glyph unicode="&#x201d;" horiz-adv-x="843" d="M80 1120q106 119 106 195q-74 40 -73 129q0 61 41 100t86 39h2q70 0 117 -41t47 -98q0 -176 -267 -383q-27 0 -43 16t-16 43zM479 1120q106 119 107 195q-74 40 -74 129q0 61 41 100t86 39q72 0 119 -41t47 -98q0 -176 -266 -383q-29 0 -45 16q-15 14 -15 43z" />
<glyph unicode="&#x2022;" horiz-adv-x="712" d="M100 770q0 115 72 186q74 74 182 74q111 0 185 -74q76 -76 75 -186q0 -109 -75 -182q-77 -74 -185 -74q-109 0 -182 74q-72 71 -72 182z" />
<glyph unicode="&#x2026;" horiz-adv-x="1460" d="M1081 115q0 94 84 129q27 10 68 10q43 0 84 -41q39 -39 39 -98q0 -92 -82 -125q-27 -10 -70 -10q-41 0 -84 38q-39 38 -39 97zM593 115q0 94 84 129q27 10 68 10q43 0 84 -41q39 -39 39 -98q0 -92 -82 -125q-27 -10 -70 -10q-41 0 -84 38q-39 38 -39 97zM106 115 q0 94 84 129q27 10 68 10q43 0 84 -41q39 -39 39 -98q0 -92 -82 -125q-27 -10 -70 -10q-41 0 -84 38q-39 38 -39 97z" />
<glyph unicode="&#x202f;" horiz-adv-x="335" />
<glyph unicode="&#x205f;" horiz-adv-x="419" />
<glyph unicode="&#x20ac;" d="M27 641q6 76 41 76h133v16q0 39 4 113h-88q-35 0 -41 76q0 47 14 61q16 16 27 16h102q80 526 516 527q154 0 289 -82t135 -203q0 -59 -45 -108q-43 -45 -108.5 -45.5t-108.5 42.5q-45 45 -45 107q0 59 22 98q-55 35 -159 35q-100 0 -168 -94q-70 -96 -96 -277h307 q29 0 37 -51q2 -8 2 -28q0 -14 -11 -46q-10 -29 -28 -28h-322q-2 -14 -2 -43v-86h279q33 0 37 -76q0 -27 -9 -51q-10 -29 -28 -29h-269q33 -299 187 -387q49 -29 102 -29q133 0 250 68q33 18 53 18q14 0 41 -32q23 -29 23 -58q0 -28 -19 -43q-135 -119 -352 -118 q-219 0 -364 182q-119 152 -152 399h-145q-27 0 -37 53q-4 25 -4 27z" />
<glyph unicode="&#x2122;" horiz-adv-x="3241" d="M1350 1446q0 59 26 59h297q29 0 41 -28l549 -1158l481 1166q8 20 27 20h375q25 0 24 -71q0 -70 -34 -70h-181v-1223h168q27 0 27 -55t-14 -70q-16 -16 -27 -16h-530q-25 0 -25 53q0 51 29 80q8 8 32 8h14q115 0 115 43v934l-448 -1118q-12 -12 -53 -12q-40 0 -62 12 l-461 1024v-883h168q27 0 27 -55q0 -53 -16.5 -69.5t-24.5 -16.5h-473q-25 0 -25 53t27 80q8 8 35 8h14q115 0 115 43v1164q0 16 -12 16h-164q-31 0 -39 53q-2 11 -2 29zM18 1229v4l37 272h1162l38 -272v-4q0 -37 -55 -49q-10 -2 -31 -2q-40 0 -49 24l-43 150h-336v-1211 h168q29 0 29 -55q0 -53 -16.5 -69.5t-24.5 -16.5h-532q-23 0 -23 53q0 55 27 80q8 8 55 8h12q95 0 94 43v1168h-333l-45 -150q-8 -25 -54 -24q-47 0 -71 30q-9 9 -9 21z" />
<glyph unicode="&#xe000;" horiz-adv-x="1000" d="M0 1000h1000v-1000h-1000v1000z" />
<glyph unicode="&#xfb01;" horiz-adv-x="1452" d="M828 928q0 47 26 55q94 37 340 39q41 0 45 -86v-795h168q25 0 25 -55t-14 -70q-16 -16 -27 -16h-510q-25 0 -25 55.5t15 69.5q16 16 22 16h15q115 0 131 23q6 8 6 20v664h-176q-41 0 -41 80zM983 1409q0 96 82 129q27 10 56 10q57 0 96 -39q41 -41 41 -100t-39 -98 t-98 -39q-94 0 -127 82q-11 26 -11 55zM63 848q0 154 39 153h15q117 0 133 23q6 8 6 20v123q0 291 178 381q66 35 162 35t147 -33q70 -43 70 -133q0 -59 -39 -98t-96 -39q-94 0 -127 82q-10 27 -10 55v33h-2q-80 0 -86 -170q-2 -33 -2 -96v-183h268q25 0 24 -59 q0 -61 -22 -86q-8 -8 -23 -8h-247v-707h225q27 0 26.5 -55t-14.5 -70q-16 -16 -26 -16h-570q-27 0 -26 55q0 53 16 69.5t22 16.5h13q117 0 133 23q6 8 6 20v664h-193z" />
<glyph unicode="&#xfb02;" horiz-adv-x="1411" d="M787 1489q0 49 26 57q90 35 340 37q41 0 43 -86q0 -8 1.5 -24.5t1.5 -26.5v-1305h167q25 0 25 -55t-14 -70q-16 -16 -27 -16h-510q-25 0 -24.5 55.5t14.5 69.5q16 16 22 16h15q115 0 131 23q6 8 6 20v1225h-176q-35 0 -41 80zM63 848q0 154 39 153h15q117 0 133 23 q6 8 6 20v123q0 291 178 381q66 35 162 35t147 -33q70 -43 70 -133q0 -59 -39 -98t-96 -39q-94 0 -127 82q-10 27 -10 55v33h-2q-80 0 -86 -170q-2 -33 -2 -96v-183h268q25 0 24 -59q0 -61 -22 -86q-8 -8 -23 -8h-247v-707h225q27 0 26.5 -55t-14.5 -70q-16 -16 -26 -16 h-570q-27 0 -26 55q0 53 16 69.5t22 16.5h13q117 0 133 23q6 8 6 20v664h-193z" />
<glyph unicode="&#xfb03;" horiz-adv-x="2244" d="M1618 928q0 47 26 55q94 37 340 39q41 0 45 -86v-795h168q25 0 25 -55t-14 -70q-16 -16 -27 -16h-510q-25 0 -25 55.5t15 69.5q16 16 22 16h15q115 0 131 23q6 8 6 20v664h-176q-41 0 -41 80zM1773 1409q0 96 82 129q27 10 56 10q57 0 96 -39q41 -41 41 -100t-39 -98 t-98 -39q-94 0 -127 82q-11 26 -11 55zM856 848q0 154 39 153h15q117 0 133 23q6 8 6 20v123q0 291 178 381q66 35 162 35t147 -33q70 -43 70 -133q0 -59 -39 -98t-96 -39q-94 0 -127 82q-10 27 -10 55v33h-2q-80 0 -86 -170q-2 -33 -2 -96v-183h268q25 0 24 -59 q0 -61 -22 -86q-8 -8 -23 -8h-247v-707h225q27 0 26.5 -55t-14.5 -70q-16 -16 -26 -16h-570q-27 0 -26 55q0 53 16 69.5t22 16.5h13q117 0 133 23q6 8 6 20v664h-193zM63 848q0 154 39 153h15q117 0 133 23q6 8 6 20v123q0 291 178 381q66 35 162 35t147 -33q70 -43 70 -133 q0 -59 -39 -98t-96 -39q-94 0 -127 82q-10 27 -10 55v33h-2q-80 0 -86 -170q-2 -33 -2 -96v-183h268q25 0 24 -59q0 -61 -22 -86q-8 -8 -23 -8h-247v-707h225q27 0 26.5 -55t-14.5 -70q-16 -16 -26 -16h-570q-27 0 -26 55q0 53 16 69.5t22 16.5h13q117 0 133 23q6 8 6 20 v664h-193z" />
<glyph unicode="&#xfb04;" horiz-adv-x="2203" d="M1577 1489q0 49 26 57q90 35 340 37q41 0 43 -86q0 -8 1.5 -24.5t1.5 -26.5v-1305h167q25 0 25 -55t-14 -70q-16 -16 -27 -16h-510q-25 0 -24.5 55.5t14.5 69.5q16 16 22 16h15q115 0 131 23q6 8 6 20v1225h-176q-35 0 -41 80zM856 848q0 154 39 153h15q117 0 133 23 q6 8 6 20v123q0 291 178 381q66 35 162 35t147 -33q70 -43 70 -133q0 -59 -39 -98t-96 -39q-94 0 -127 82q-10 27 -10 55v33h-2q-80 0 -86 -170q-2 -33 -2 -96v-183h268q25 0 24 -59q0 -61 -22 -86q-8 -8 -23 -8h-247v-707h225q27 0 26.5 -55t-14.5 -70q-16 -16 -26 -16 h-570q-27 0 -26 55q0 53 16 69.5t22 16.5h13q117 0 133 23q6 8 6 20v664h-193zM63 848q0 154 39 153h15q117 0 133 23q6 8 6 20v123q0 291 178 381q66 35 162 35t147 -33q70 -43 70 -133q0 -59 -39 -98t-96 -39q-94 0 -127 82q-10 27 -10 55v33h-2q-80 0 -86 -170 q-2 -33 -2 -96v-183h268q25 0 24 -59q0 -61 -22 -86q-8 -8 -23 -8h-247v-707h225q27 0 26.5 -55t-14.5 -70q-16 -16 -26 -16h-570q-27 0 -26 55q0 53 16 69.5t22 16.5h13q117 0 133 23q6 8 6 20v664h-193z" />
</font>
</defs>
</svg>
